<?xml version="1.0" encoding="utf-8"?>
<?xml-stylesheet type="text/xsl" href="rss1.xsl"?>
<rss version="2.0" xmlns:atom="http://www.w3.org/2005/Atom" xmlns:content="http://purl.org/rss/1.0/modules/content/" xmlns:dc="http://purl.org/dc/elements/1.1/" xmlns:media="http://search.yahoo.com/mrss/">
<channel>
 <title>Getty</title>
 <link>http://www.gettyimg.com/</link>
 <atom:link href="http://www.gettyimg.com/" rel="self" type="application/rss+xml" />

 
                <item>
                <title><![CDATA[【Cinema Center】MOVIE - Mama (2013) BluRay 1080p DTS-HD MA5.1 x265 10bit - BeiTai]]></title>
                <link><![CDATA[https://sharemania.us/threads/mama-2013-bluray-1080p-dts-hd-ma5-1-x265-10bit-beitai.241453/]]></link>
                <description><![CDATA[<article>
<blockquote class="messageText SelectQuoteContainer ugc baseHtml">
<div style="text-align: center"><img src="https://m.media-amazon.com/images/M/MV5BMTM5MjIwNDAwMl5BMl5BanBnXkFtZTcwNzQyOTY0OA@@._V1_FMjpg_UY2048_.jpg" class="bbCodeImage LbImage" alt="[​IMG]" data-url="https://m.media-amazon.com/images/M/MV5BMTM5MjIwNDAwMl5BMl5BanBnXkFtZTcwNzQyOTY0OA@@._V1_FMjpg_UY2048_.jpg" style=""> <br>
<br>
After a young couple take in their two nieces, they suspect that a supernatural spirit named Mama has latched onto their family.<br>
<br>
Download:<br>
<br>
<div class="bbCodeBlock bbCodeVfcHH HiddenContent">
<div class="attribution type">Hidden Content:</div>
<blockquote>You must either reply or click 'Like' to see the hidden information contained here.</blockquote>
</div></div>
<div class="messageTextEndMarker">&nbsp;</div>
</blockquote>
</article>]]></description>
                <author><![CDATA[sunnyillion]]></author>
                </item>

                
                <item>
                <title><![CDATA[【Cinema Center】MOVIE - Shutter (2004) 1080p WEB-DL DD5.1 H.264 - NGP]]></title>
                <link><![CDATA[https://sharemania.us/threads/shutter-2004-1080p-web-dl-dd5-1-h-264-ngp.241450/]]></link>
                <description><![CDATA[<article>
<blockquote class="messageText SelectQuoteContainer ugc baseHtml">
<div style="text-align: center"><img src="https://m.media-amazon.com/images/M/MV5BY2UzMzQyNTYtOWIwMC00M2RhLTkyZTMtMTYzYzFmNTRkODU4XkEyXkFqcGdeQXVyNTAyODkwOQ@@._V1_FMjpg_UX1000_.jpg" class="bbCodeImage LbImage" alt="[​IMG]" data-url="https://m.media-amazon.com/images/M/MV5BY2UzMzQyNTYtOWIwMC00M2RhLTkyZTMtMTYzYzFmNTRkODU4XkEyXkFqcGdeQXVyNTAyODkwOQ@@._V1_FMjpg_UX1000_.jpg" style=""> <br>
<br>
A young photographer and his girlfriend discover mysterious shadows in their photographs after a tragic accident. They soon learn that you can not escape your past.<br>
<br>
Download:<br>
<br>
<div class="bbCodeBlock bbCodeVfcHH HiddenContent">
<div class="attribution type">Hidden Content:</div>
<blockquote>You must either reply or click 'Like' to see the hidden information contained here.</blockquote>
</div></div>
<div class="messageTextEndMarker">&nbsp;</div>
</blockquote>
</article>]]></description>
                <author><![CDATA[sunnyillion]]></author>
                </item>

                
                <item>
                <title><![CDATA[【HD Live Performances】WEB-RiP - Zara Larsson - Venus Tour Amsterdam WEBRIP 2160p h265 HDR AAC 5.1]]></title>
                <link><![CDATA[https://sharemania.us/threads/zara-larsson-venus-tour-amsterdam-webrip-2160p-h265-hdr-aac-5-1.241451/]]></link>
                <description><![CDATA[<article>
<blockquote class="messageText SelectQuoteContainer ugc baseHtml">
gracias
<div class="messageTextEndMarker">&nbsp;</div>
</blockquote>
</article>]]></description>
                <author><![CDATA[harmonizer54]]></author>
                </item>

                
                <item>
                <title><![CDATA[【Requests】[REQ AUD] - Beyoncé - Discography (CD Rip)]]></title>
                <link><![CDATA[https://sharemania.us/threads/beyonc%C3%A9-discography-cd-rip.241452/]]></link>
                <description><![CDATA[<article>
<blockquote class="messageText SelectQuoteContainer ugc baseHtml">
<img src="https://i.imgur.com/5oWLTcO.jpg" class="bbCodeImage LbImage" alt="[​IMG]" data-url="https://i.imgur.com/5oWLTcO.jpg" style=""><br>
<br>
<div class="bbCodeBlock bbCodeCode">
<div class="type">Code:</div>
<pre>General
Unique ID                      : 321959272540343978778094275042617392323 (0xF23719B2E338EA3A52FA63D4268CFCC3)
Complete name                  : C:\Users\Zara Larsson - Venus Tour Amsterdam WEBRIP 2160p h265 HDR AAC 5.1.mkv
Format                         : Matroska
Format version                 : Version 4
File size                      : 6.39 GiB
Duration                       : 1 h 14 min
Overall bit rate               : 12.3 Mb/s
Frame rate                     : 25.000 FPS
Movie name                     : Zara Larsson Venus Tour
Encoded date                   : 2024-04-04 20:23:28 UTC
Writing application            : mkvmerge v82.0 ('I'm The President') 64-bit
Writing library                : libebml v1.4.5 + libmatroska v1.7.1

Video
ID                             : 1
Format                         : HEVC
Format/Info                    : High Efficiency Video Coding
Format profile                 : Main 10@L5@Main
HDR format                     : SMPTE ST 2086, HDR10 compatible
Codec ID                       : V_MPEGH/ISO/HEVC
Duration                       : 1 h 14 min
Bit rate                       : 11.9 Mb/s
Width                          : 3 840 pixels
Height                         : 2 160 pixels
Display aspect ratio           : 16:9
Frame rate mode                : Constant
Frame rate                     : 25.000 FPS
Color space                    : YUV
Chroma subsampling             : 4:2:0
Bit depth                      : 10 bits
Bits/(Pixel*Frame)             : 0.057
Stream size                    : 6.19 GiB (97%)
Default                        : Yes
Forced                         : No
Color range                    : Full
Color primaries                : BT.2020
Transfer characteristics       : PQ
Matrix coefficients            : BT.2020 non-constant
Mastering display color primar : R: x=0.680000 y=0.320000, G: x=0.265000 y=0.690000, B: x=0.150000 y=0.060000, White point: x=0.312700 y=0.312700
Mastering display luminance    : min: 0.0001 cd/m2, max: 1000 cd/m2
Maximum Content Light Level    : 1002 cd/m2
Maximum Frame-Average Light Le : 800 cd/m2

Audio
ID                             : 2
Format                         : AAC LC
Format/Info                    : Advanced Audio Codec Low Complexity
Codec ID                       : A_AAC-2
Duration                       : 1 h 14 min
Bit rate                       : 384 kb/s
Channel(s)                     : 6 channels
Channel layout                 : C L R Ls Rs LFE
Sampling rate                  : 48.0 kHz
Frame rate                     : 46.875 FPS (1024 SPF)
Compression mode               : Lossy
Stream size                    : 204 MiB (3%)
Language                       : English
Default                        : Yes
Forced                         : No

</pre>
</div><b>Ripped by me from onair.events.</b><br>
<br>
<div class="bbCodeBlock bbCodeVfcHH HiddenContent">
<div class="attribution type">Hidden Content:</div>
<blockquote>You must reply before you can see the hidden data contained here.</blockquote>
</div><div style="text-align: center"><b><span style="font-size: 22px">Dolby Vision + Dolby Atmos VERSION:</span></b><br>
<a href="https://sharemania.us/threads/zara-larsson-venus-tour-amsterdam-webrip-2160p-dolby-vision-dolby-atmos.241425/" class="internalLink">https://sharemania.us/threads/zara-...webrip-2160p-dolby-vision-dolby-atmos.241425/</a>​</div>
<div class="messageTextEndMarker">&nbsp;</div>
</blockquote>
</article>]]></description>
                <author><![CDATA[Nuric]]></author>
                </item>

                </channel></rss>